<?xml version="1.0" encoding="utf-8"?>
<!-- Generator: Adobe Illustrator 16.0.0, SVG Export Plug-In . SVG Version: 6.00 Build 0)  -->
<!DOCTYPE svg PUBLIC "-//W3C//DTD SVG 1.1//EN" "http://www.w3.org/Graphics/SVG/1.1/DTD/svg11.dtd">
<svg version="1.1" id="Layer_1" xmlns="http://www.w3.org/2000/svg" xmlns:xlink="http://www.w3.org/1999/xlink" x="0px" y="0px"
	 width="327.5px" height="327px" viewBox="0 0 327.5 327" enable-background="new 0 0 327.5 327" xml:space="preserve">
<g>
	<path fill="#FFFFFF" d="M163.746,16.5c81.059,0,147.004,65.945,147.004,146.996c0,81.06-65.945,147.005-147.004,147.005
		c-81.05,0-146.996-65.945-146.996-147.005C16.75,82.445,82.696,16.5,163.746,16.5 M163.746,0.167
		C73.541,0.167,0.417,73.29,0.417,163.496c0,90.214,73.124,163.337,163.329,163.337c90.213,0,163.338-73.123,163.338-163.337
		C327.084,73.29,253.961,0.167,163.746,0.167L163.746,0.167z"/>
	<path fill="#FFFFFF" d="M101.277,163.496c0,12.632-10.238,22.869-22.87,22.869c-12.622,0-22.861-10.237-22.861-22.869
		c0-12.622,10.239-22.861,22.861-22.861C91.039,140.635,101.277,150.874,101.277,163.496z"/>
	<path fill="#FFFFFF" d="M226.225,163.496c0,12.632,10.238,22.869,22.869,22.869c12.623,0,22.861-10.237,22.861-22.869
		c0-12.622-10.238-22.861-22.861-22.861C236.463,140.635,226.225,150.874,226.225,163.496z"/>
	<path fill="#FFFFFF" d="M140.886,163.496c0,12.632,10.238,22.869,22.86,22.869c12.631,0,22.87-10.237,22.87-22.869
		c0-12.622-10.238-22.861-22.87-22.861C151.124,140.635,140.886,150.874,140.886,163.496z"/>
</g>
</svg>
