<?xml version="1.0" encoding="utf-8"?>
<!-- Generator: Adobe Illustrator 16.0.0, SVG Export Plug-In . SVG Version: 6.00 Build 0)  -->
<!DOCTYPE svg PUBLIC "-//W3C//DTD SVG 1.1//EN" "http://www.w3.org/Graphics/SVG/1.1/DTD/svg11.dtd">
<svg version="1.1" id="Layer_1" xmlns="http://www.w3.org/2000/svg" xmlns:xlink="http://www.w3.org/1999/xlink" x="0px" y="0px"
	 width="440px" height="160px" viewBox="0 0 440 160" enable-background="new 0 0 440 160" xml:space="preserve">
<path fill="#E8340D" d="M440,161c0,0-22.151-27.505-57.614-59.437C398.492,88.822,415.246,73,432.334,54H400
	c0,0-14.998,14.127-38.153,29.66c-40.971-33.578-94.22-67.538-150.264-76.827c0,0-44.391-9.681-107.13,22.854
	C95.867,20.8,87.423,11,79.333,1H0c0,0,22.152,27.505,57.614,59.437C41.508,73.178,24.753,88,7.666,108H40
	c0,0,14.998-14.628,38.154-30.16c40.97,33.577,94.219,67.288,150.263,76.577c0,0,44.391,10.056,107.13-22.479
	c8.586,8.887,17.029,18.062,25.119,29.062H440z M234.009,116.867c-8.23-2.279-16.246-5.441-23.943-9.055
	c-29.89-14.033-58.052-34.943-82.728-56.629c1.297,1.14,23.56-7.707,26.838-8.421c10.087-2.199,20.17-3.326,30.487-3.151
	c23.622,0.399,45.063,12.722,64.861,24.463c22.381,13.272,43.59,28.563,63.138,45.742c-0.921-0.81-21.467,6.922-23.963,7.46
	c-9.165,1.979-18.63,3.273-28.016,3.348C251.632,120.695,242.7,119.273,234.009,116.867z"/>
</svg>
